<?xml version="1.0" encoding="iso-8859-1"?>
<!-- Generator: Adobe Illustrator 19.0.0, SVG Export Plug-In . SVG Version: 6.00 Build 0)  -->
<svg version="1.1" id="Capa_1" xmlns="http://www.w3.org/2000/svg" xmlns:xlink="http://www.w3.org/1999/xlink" x="0px" y="0px"
	 viewBox="0 0 548.349 548.349" style="enable-background:new 0 0 548.349 548.349;" xml:space="preserve">
<g>
	<g>
		<path style="fill:#010002;" d="M500.479,425.321c-3.504-13.624-17.436-21.862-31.038-18.331c0,0-20.542,5.317-38.804,10.046
			c-9.553-32.734-40.686-140.3-40.686-140.3s-127.026,35.607-164.234,46.03c-2.613-12.261-7.035-32.496-11.954-54.877h92.648
			c14.143,0,25.531-11.413,25.531-25.509c0-14.074-11.392-25.487-25.531-25.487H202.375c-8.19-36.52-15.203-67.394-15.203-67.394
			c-2.894-13.767-16.402-22.593-30.19-19.694c-13.741,2.825-22.615,16.354-19.742,30.099l49.582,226.661
			c0,0,132.698-37.204,168.136-47.133c9.601,33.158,40.453,139.335,40.453,139.335l86.716-22.403
			C495.772,452.829,503.984,438.967,500.479,425.321z"/>
		<path style="fill:#010002;" d="M300.478,375.904c1.198,6.282,1.882,12.755,1.882,19.344c0,56.314-45.818,102.153-102.201,102.153
			c-27.227,0-52.969-10.635-72.196-29.909c-19.249-19.275-29.909-44.948-29.909-72.218c0-27.322,10.635-52.969,29.909-72.292
			c6.446-6.425,13.672-11.859,21.416-16.285l-10.825-51.654c-17.155,7.554-33.037,18.284-46.618,31.934
			c-28.992,28.849-44.874,67.325-44.874,108.249c0,40.877,15.883,79.352,44.805,108.271c28.944,28.923,67.372,44.853,108.297,44.853
			c80.996,0,147.43-63.137,152.816-142.723c-5.058-17.388-9.505-32.708-11.932-41.089
			C333.281,366.701,318.316,370.868,300.478,375.904z"/>
		<circle style="fill:#010002;" cx="160.723" cy="57.395" r="57.395"/>
	</g>
	<g>
	</g>
	<g>
	</g>
	<g>
	</g>
	<g>
	</g>
	<g>
	</g>
	<g>
	</g>
	<g>
	</g>
	<g>
	</g>
	<g>
	</g>
	<g>
	</g>
	<g>
	</g>
	<g>
	</g>
	<g>
	</g>
	<g>
	</g>
	<g>
	</g>
</g>
<g>
</g>
<g>
</g>
<g>
</g>
<g>
</g>
<g>
</g>
<g>
</g>
<g>
</g>
<g>
</g>
<g>
</g>
<g>
</g>
<g>
</g>
<g>
</g>
<g>
</g>
<g>
</g>
<g>
</g>
</svg>
